<?xml version="1.0" encoding="UTF-8" standalone="no"?>
<!-- Created with Inkscape (http://www.inkscape.org/) -->

<svg
   xmlns:dc="http://purl.org/dc/elements/1.1/"
   xmlns:cc="http://creativecommons.org/ns#"
   xmlns:rdf="http://www.w3.org/1999/02/22-rdf-syntax-ns#"
   xmlns:svg="http://www.w3.org/2000/svg"
   xmlns="http://www.w3.org/2000/svg"
   xmlns:sodipodi="http://sodipodi.sourceforge.net/DTD/sodipodi-0.dtd"
   xmlns:inkscape="http://www.inkscape.org/namespaces/inkscape"
   id="svg2985"
   version="1.1"
   inkscape:version="0.48.5 r10040"
   width="1168.942"
   height="273.07858"
   sodipodi:docname="logoVector.svg"
   inkscape:export-filename="C:\Users\Bobby\Desktop\spa\img\logoVector.png"
   inkscape:export-xdpi="90"
   inkscape:export-ydpi="90">
  <metadata
     id="metadata2991">
    <rdf:RDF>
      <cc:Work
         rdf:about="">
        <dc:format>image/svg+xml</dc:format>
        <dc:type
           rdf:resource="http://purl.org/dc/dcmitype/StillImage" />
        <dc:title />
      </cc:Work>
    </rdf:RDF>
  </metadata>
  <defs
     id="defs2989" />
  <sodipodi:namedview
     pagecolor="#ffffff"
     bordercolor="#666666"
     borderopacity="1"
     objecttolerance="10"
     gridtolerance="10"
     guidetolerance="10"
     inkscape:pageopacity="0"
     inkscape:pageshadow="2"
     inkscape:window-width="1366"
     inkscape:window-height="705"
     id="namedview2987"
     showgrid="false"
     inkscape:zoom="0.60904086"
     inkscape:cx="413.43738"
     inkscape:cy="120.81597"
     inkscape:window-x="-8"
     inkscape:window-y="-8"
     inkscape:window-maximized="1"
     inkscape:current-layer="layer2"
     fit-margin-top="0"
     fit-margin-left="0"
     fit-margin-right="0"
     fit-margin-bottom="0" />
  <g
     inkscape:groupmode="layer"
     id="layer1"
     inkscape:label="Trace"
     style="display:none"
     sodipodi:insensitive="true"
     transform="translate(-5.9607387,12.299393)">
    <path
       style="fill:#000000"
       d="m 152.46996,272.93077 c 12.84947,-8.17619 28.34458,-13.0767 40.48442,-22.99227 28.92077,-20.09474 53.15663,-53.75796 48.85566,-90.51302 -2.12912,-23.40412 -14.11497,-46.97351 -35.83807,-57.74619 C 184.74114,90.107947 158.22234,87.354953 135.58543,96.311409 122.2802,104.34078 112.37773,117.70897 106.75769,131.87063 96.128654,123.18925 88.864422,107.22124 90.550174,93.006297 99.261646,67.578754 122.42696,50.457618 147.33288,41.034229 c 38.77397,-12.661018 83.7893,0.49608 110.99628,30.580474 5.34609,6.541251 20.2553,20.216341 15.5037,25.469164 -10.57842,-6.20215 -20.67989,-22.544303 -33.78982,-18.241604 1.05978,12.939491 11.12844,24.217867 14.88125,36.836257 8.96905,26.48106 8.26515,56.58507 -2.22377,82.51893 -15.82783,33.52799 -46.84138,57.98695 -81.28958,70.45552 -5.62035,1.28051 -13.66699,7.26383 -18.94098,4.2778 z M 78.469953,238.57494 C 62.069947,235.08222 46.02159,229.19585 33.119236,218.15462 20.204479,208.40283 8.2231228,196.2595 1.0893255,181.66025 10.88879,183.79039 19.779047,199.14117 32.451673,200.13321 41.665435,194.21852 25.111756,178.83488 22.674356,170.19268 13.912346,152.31878 12.100155,132.8446 12.631256,113.25435 12.149284,92.48975 22.494692,73.111528 33.549535,56.189909 53.87117,29.526761 83.044254,9.1763378 115.30879,0.04256376 116.18074,5.3552338 95.823541,10.790335 89.183967,16.501032 68.534236,30.533871 49.124737,47.891456 38.720322,71.099623 c -6.698046,12.060864 -9.914918,25.596709 -8.608366,39.371397 -0.476372,21.87533 8.947429,43.70368 24.173488,59.21843 13.00243,10.8477 29.889163,16.78426 46.481396,19.08756 19.86022,2.08712 41.40776,-5.03816 52.58064,-22.37402 6.26198,-8.8681 11.70338,-22.56848 20.11837,-6.87067 7.37542,10.68118 9.11126,26.65279 1.09361,37.72549 -14.6888,20.81111 -37.52987,36.59281 -62.5842,41.70866 -11.10124,0.88501 -22.485231,1.57775 -33.505307,-0.39153 z M 99.65589,171.94947 c -13.061847,-11.45052 1.08247,-32.80494 14.77155,-21.84282 12.22669,7.39939 3.51825,27.31494 -9.97397,23.89119 -1.81684,-0.41127 -3.3768,-0.8465 -4.79758,-2.04837 z M 70.546673,157.54432 c -10.074705,-16.03587 17.258213,-20.24899 14.540301,-3.20451 -1.749304,6.35216 -10.122336,7.41217 -14.540301,3.20451 z m 57.823617,-3.40207 c -14.73904,-5.57147 -11.15445,-26.57379 2.28033,-30.90013 14.67138,-5.59083 29.40228,14.7095 19.16763,26.87747 -5.13935,6.06748 -14.46131,7.90523 -21.44796,4.02266 z m 84.99416,-0.12316 c -10.44485,-10.23992 8.81155,-21.70355 10.64475,-5.7738 -0.36446,4.01554 -4.88522,9.0462 -10.64475,5.7738 z M 51.542533,137.49835 c -7.240406,-13.69976 15.623583,-16.09175 12.545701,-1.82663 -1.688709,5.23748 -9.393976,6.28574 -12.545701,1.82663 z m 141.334177,-1.33832 c -13.09445,-10.96342 9.63093,-26.26754 13.64444,-8.18141 0.15013,7.45789 -8.23498,11.19974 -13.64444,8.18141 z m -36.73572,-8.29786 c -13.542,-14.90431 10.1991,-31.546277 20.83618,-17.20345 10.3557,13.73415 -9.48537,29.09844 -20.83618,17.20345 z"
       id="path2998"
       inkscape:connector-curvature="0"
       sodipodi:nodetypes="cccccccccccccccccccccccccccccccccccccccccccccccccccccccc"
       inkscape:export-filename="C:\Users\Bobby\Desktop\spa\img\logoBitmap.png"
       inkscape:export-xdpi="90"
       inkscape:export-ydpi="90" />
  </g>
  <g
     inkscape:groupmode="layer"
     id="layer2"
     inkscape:label="Logo"
     style="display:inline"
     transform="translate(-5.9607387,12.299393)">
    <path
       style="opacity:0.98000004;fill:#e11010;fill-opacity:0.99414296"
       d="M 87.581277,226.32791 C 74.64898,224.88462 56.316261,218.24014 45.301685,211.00416 34.122873,203.66028 20.550527,191.19622 13.672763,181.95796 9.8907994,176.87801 5.5849875,169.89473 5.9868945,169.49282 c 0.3470339,-0.34703 4.9341295,2.25213 7.5024755,4.25108 1.354589,1.05429 3.848264,3.08371 5.5415,4.50983 6.725203,5.66428 13.038665,9.11805 16.667715,9.11805 0.966145,0 1.601276,-0.33369 2.366851,-1.24352 2.833432,-3.36734 1.714519,-7.18105 -5.406349,-18.42704 C 26.260058,157.59524 21.562444,145.71847 19.222445,133.72994 17.659761,125.72383 17.323876,121.70035 17.103298,108.34525 16.912384,96.786214 16.983151,94.127004 17.583944,90.284064 19.626571,77.218492 24.899867,64.30266 34.485838,48.886428 38.278114,42.787663 41.367988,38.821406 47.654794,31.982354 62.452471,15.884815 81.512046,2.4635976 102.15337,-6.3940168 c 4.54532,-1.9504918 16.72804,-6.1711572 17.00749,-5.8921962 0.4084,0.407673 -1.64662,2.5325758 -3.90665,4.0395103 -1.33452,0.8898232 -5.49762,3.0513469 -9.25133,4.8033857 C 98.115833,0.23795055 96.34864,1.2377706 90.696725,5.2164096 74.579785,16.561852 62.911299,27.396528 53.668726,39.598456 c -4.401708,5.811075 -6.84452,9.954249 -11.413463,19.357994 -6.405976,13.184706 -8.00051,19.256807 -8.336749,31.746954 -0.362886,13.479956 0.893312,23.395996 4.212633,33.253216 3.900094,11.58192 9.833072,21.81141 17.615021,30.37141 11.024379,12.12659 36.2515,22.09531 55.848272,22.06891 12.53311,-0.0169 23.47427,-3.13771 32.81688,-9.36059 5.66438,-3.77291 9.58665,-7.95593 14.98756,-15.98397 2.57901,-3.83349 5.40744,-7.74929 6.28542,-8.70178 3.98409,-4.32223 7.12442,-3.00205 11.89184,4.99924 4.4626,7.48969 5.79926,12.05375 5.83052,19.90835 0.0332,8.34027 -1.33296,12.18519 -7.00478,19.7146 -16.28178,21.61425 -42.87383,37.6241 -65.40259,39.37591 -6.35118,0.49387 -18.906473,0.48272 -23.418013,-0.0208 l 0,2e-5 z"
       id="path3818"
       inkscape:connector-curvature="0" />
    <path
       style="opacity:0.98000004;fill:#e11010;fill-opacity:0.99414296"
       d="m 157.98232,260.47111 c -0.7184,-0.28048 -0.56912,-0.47645 1.23144,-1.61662 1.12692,-0.7136 7.12865,-3.86645 13.33718,-7.00633 13.55366,-6.85457 17.91366,-9.45998 26.27082,-15.69865 18.024,-13.45502 30.24934,-27.4334 38.53193,-44.05719 6.62547,-13.29782 9.44259,-25.80257 8.96321,-39.78632 -0.88749,-25.88872 -11.89594,-47.85823 -30.10737,-60.085126 -4.00181,-2.68676 -13.45882,-7.26378 -18.82446,-9.110684 -11.08886,-3.816903 -19.54753,-5.110777 -31.40183,-4.803351 -7.99449,0.20733 -11.48408,0.657107 -17.97679,2.317057 -8.49062,2.170741 -12.50911,4.597429 -20.04031,12.101958 -7.01371,6.98888 -11.72231,13.718086 -15.55743,22.233616 l -1.74443,3.87334 -3.1335,-3.33093 C 100.26475,107.77805 95.934579,98.282414 94.862217,87.720984 94.299722,82.181115 94.611304,80.254971 96.877008,75.26591 105.70934,55.817176 122.46009,40.762632 146.68074,30.50538 c 21.95146,-9.296267 50.41764,-8.94223 75.25311,0.93593 18.00763,7.162428 31.10122,16.872069 46.42661,34.42796 8.28642,9.492446 11.02584,14.336095 9.84641,17.409661 -0.22312,0.581422 -0.37431,0.574416 -1.49031,-0.06905 -0.6831,-0.393861 -4.21952,-3.273803 -7.85871,-6.399866 -6.99381,-6.007688 -9.82577,-8.11409 -13.21027,-9.825736 -2.50032,-1.264493 -6.58689,-2.069381 -8.69832,-1.713219 -3.14217,0.530035 -3.07009,0.457096 -2.75866,2.791455 0.56214,4.213728 2.79844,9.922926 7.78739,19.880959 2.79643,5.58172 5.7536,12.088116 6.57149,14.458646 6.29573,18.24732 7.99163,39.6618 4.68112,59.10933 -3.29971,19.384 -10.47103,34.47349 -24.05124,50.60724 -14.78769,17.56827 -37.07359,33.2179 -59.65023,41.88764 -2.82206,1.08371 -7.43998,2.8717 -10.26204,3.97332 -6.92018,2.70136 -9.36474,3.24106 -11.28477,2.49146 z"
       id="path3820"
       inkscape:connector-curvature="0" />
    <path
       style="opacity:0.98000004;fill:#37abc8;fill-opacity:0.97254902"
       d="m 137.99276,143.13326 c -2.53794,-0.42663 -6.9354,-2.28629 -9.16482,-3.87575 -5.06715,-3.61263 -7.06111,-10.51414 -4.94632,-17.12028 1.00443,-3.13763 2.54135,-5.66061 4.69663,-7.70991 2.19569,-2.08774 3.95242,-3.12379 6.95162,-4.09982 1.48574,-0.48351 2.10991,-0.57079 4.20743,-0.58834 2.72984,-0.0229 4.36305,0.3551 6.76572,1.56566 3.6533,1.84069 7.22624,5.56114 8.93243,9.30122 1.08644,2.38155 1.47281,4.00876 1.58153,6.66059 0.12762,3.11328 -0.17466,4.6413 -1.4211,7.18343 -0.70555,1.43898 -1.19869,2.08606 -2.81547,3.69433 -2.79597,2.78125 -5.73779,4.31008 -9.45139,4.91177 -1.29275,0.20945 -4.29118,0.25277 -5.33626,0.0771 l 0,0 z"
       id="path3854"
       inkscape:connector-curvature="0" />
    <path
       style="opacity:0.98000004;fill:#37abc8;fill-opacity:0.97254902"
       d="m 167.13694,118.95847 c -4.21289,-0.94318 -8.1966,-4.50148 -9.97844,-8.91287 -0.93919,-2.32521 -1.1433,-4.71987 -0.58837,-6.90295 1.14406,-4.500676 4.86251,-8.293746 9.74724,-9.942806 1.88415,-0.63609 5.3707,-0.78946 7.17853,-0.31578 2.84519,0.74547 5.27489,2.35105 7.13385,4.71413 2.07308,2.635276 3.13358,5.488066 3.12926,8.417826 -0.005,3.36648 -1.22064,6.10385 -3.87742,8.73092 -2.03162,2.00892 -3.40292,2.87879 -5.88924,3.73578 -2.1706,0.74818 -4.81797,0.9319 -6.85541,0.47575 l 0,0 z"
       id="path3856"
       inkscape:connector-curvature="0" />
    <path
       style="opacity:0.98000004;fill:#37abc8;fill-opacity:0.97254902"
       d="m 199.25712,124.11184 c -1.78343,-0.46616 -2.45408,-0.86193 -3.56281,-2.10254 -3.543,-3.96443 -3.50413,-8.56201 0.10241,-12.11337 3.66242,-3.60638 8.67032,-3.84893 11.77129,-0.57011 1.14912,1.21502 2.31374,3.44345 2.69876,5.16389 0.64582,2.88583 -1.00931,6.38816 -3.89359,8.239 -2.06757,1.32675 -5.08668,1.91357 -7.11606,1.38313 z"
       id="path3858"
       inkscape:connector-curvature="0" />
    <path
       style="opacity:0.98000004;fill:#37abc8;fill-opacity:0.97254902"
       d="m 219.51588,141.93972 c -1.5523,-0.43201 -1.99809,-0.70964 -2.90859,-1.81148 -1.37708,-1.66646 -1.9466,-3.07183 -2.02935,-5.00778 -0.0653,-1.52888 -0.0143,-1.81239 0.53632,-2.97599 0.75705,-1.59996 2.13618,-3.00582 3.68567,-3.75713 1.57376,-0.76308 3.82649,-0.83366 5.0953,-0.15964 1.12451,0.59737 2.49211,2.12467 3.05794,3.41503 1.4598,3.32907 1.1256,5.75295 -1.13411,8.22544 -1.77324,1.94021 -4.06671,2.69396 -6.30318,2.07155 z"
       id="path3860"
       inkscape:connector-curvature="0" />
    <path
       style="opacity:0.98000004;fill:#37abc8;fill-opacity:0.97254902"
       d="m 109.54488,161.33176 c -2.10978,-0.3796 -4.35009,-1.2237 -5.35405,-2.01728 -2.96833,-2.34633 -4.84895,-5.6245 -5.403875,-9.41966 -0.947208,-6.47799 3.450695,-13.59346 9.351805,-15.1305 3.38308,-0.88118 6.45896,-0.0666 10.44473,2.76609 3.12911,2.22385 4.6938,4.49667 5.36036,7.78627 1.27312,6.28312 -2.88305,13.62511 -8.81536,15.57255 -1.60956,0.52838 -4.03711,0.72078 -5.58361,0.44253 l 0,0 z"
       id="path3862"
       inkscape:connector-curvature="0" />
    <path
       style="opacity:0.98000004;fill:#37abc8;fill-opacity:0.97254902"
       d="m 78.725419,146.85678 c -2.473353,-0.66589 -3.871458,-1.73117 -4.838305,-3.68652 -2.765216,-5.59238 -1.196995,-10.22091 4.032011,-11.90028 4.422021,-1.42021 8.815114,0.31205 10.553007,4.16119 0.436656,0.96712 0.546226,1.57161 0.622009,3.43156 0.07963,1.95429 0.03262,2.41489 -0.34986,3.42786 -1.36827,3.62378 -5.880592,5.68031 -10.018862,4.56619 z"
       id="path3864"
       inkscape:connector-curvature="0" />
    <path
       style="opacity:0.98000004;fill:#37abc8;fill-opacity:0.97254902"
       d="m 59.590794,127.1803 c -2.250567,-0.64299 -3.472629,-1.63442 -4.320806,-3.50538 -1.543508,-3.40477 -1.2046,-6.31874 0.967791,-8.32118 1.153528,-1.06329 2.289036,-1.57119 4.079584,-1.82476 1.724432,-0.24421 3.025368,-0.004 4.670348,0.86337 2.18275,1.15055 3.261877,3.14655 3.263373,6.03607 4.72e-4,0.9236 -0.114076,2.0319 -0.254565,2.46288 -0.656421,2.01375 -2.529874,3.67614 -4.805823,4.2644 -1.452448,0.37541 -2.350519,0.38155 -3.599902,0.0246 z"
       id="path3866"
       inkscape:connector-curvature="0" />
  </g>
  <g
     inkscape:groupmode="layer"
     id="layer3"
     inkscape:label="Text"
     transform="translate(-5.9607387,-13.700598)"
     sodipodi:insensitive="true"
     style="display:inline">
    <text
       xml:space="preserve"
       style="font-size:144px;font-style:normal;font-variant:normal;font-weight:bold;font-stretch:normal;text-align:center;line-height:89.99999762%;letter-spacing:0px;word-spacing:0px;writing-mode:lr-tb;text-anchor:middle;fill:#37abc8;fill-opacity:0.97254902;stroke:none;font-family:Yellow Magician;-inkscape-font-specification:Yellow Magician Bold"
       x="651.54291"
       y="149.21387"
       id="text3903"
       sodipodi:linespacing="89.999998%"
       transform="scale(1.0304598,0.97044058)"><tspan
         sodipodi:role="line"
         id="tspan3790"
         x="651.54291"
         y="149.21387">BLUE BAY</tspan></text>
    <text
       xml:space="preserve"
       style="font-size:140px;font-style:normal;font-variant:normal;font-weight:bold;font-stretch:normal;text-align:start;line-height:125%;letter-spacing:0px;word-spacing:0px;writing-mode:lr-tb;text-anchor:start;fill:#e11010;fill-opacity:0.97254902;stroke:none;font-family:Yellow Magician;-inkscape-font-specification:Yellow Magician Bold"
       x="304.59082"
       y="238.86871"
       id="text3784"
       sodipodi:linespacing="125%"><tspan
         sodipodi:role="line"
         id="tspan3788"
         x="304.59082"
         y="238.86871"
         style="font-size:110px;font-style:normal;font-variant:normal;font-weight:bold;font-stretch:normal;text-align:start;line-height:125%;writing-mode:lr-tb;text-anchor:start;font-family:Yellow Magician;-inkscape-font-specification:Yellow Magician Bold">MASSAGE &amp; SPA</tspan></text>
  </g>
</svg>
