<?xml version="1.0" encoding="UTF-8" standalone="no"?>
<!-- Created with Inkscape (http://www.inkscape.org/) -->

<svg
   xmlns:dc="http://purl.org/dc/elements/1.1/"
   xmlns:cc="http://creativecommons.org/ns#"
   xmlns:rdf="http://www.w3.org/1999/02/22-rdf-syntax-ns#"
   xmlns:svg="http://www.w3.org/2000/svg"
   xmlns="http://www.w3.org/2000/svg"
   xmlns:xlink="http://www.w3.org/1999/xlink"
   xmlns:sodipodi="http://sodipodi.sourceforge.net/DTD/sodipodi-0.dtd"
   xmlns:inkscape="http://www.inkscape.org/namespaces/inkscape"
   width="315"
   height="180"
   id="svg2"
   version="1.1"
   inkscape:version="0.48.5 r10040"
   sodipodi:docname="front.svg"
   inkscape:export-filename="C:\Users\Bobby\Desktop\spa\businessCards\front.png"
   inkscape:export-xdpi="342.89999"
   inkscape:export-ydpi="342.89999">
  <defs
     id="defs4">
    <filter
       inkscape:label="Apparition"
       x="0"
       y="0"
       width="1"
       height="1"
       inkscape:menu="Blurs"
       inkscape:menu-tooltip="Edges are partly feathered out"
       color-interpolation-filters="sRGB"
       id="filter3333">
      <feMorphology
         radius="4"
         in="SourceGraphic"
         result="result0"
         id="feMorphology3335" />
      <feGaussianBlur
         in="result0"
         stdDeviation="8"
         result="result91"
         id="feGaussianBlur3337" />
      <feComposite
         operator="in"
         in="SourceGraphic"
         in2="result91"
         id="feComposite3339" />
    </filter>
    <clipPath
       clipPathUnits="userSpaceOnUse"
       id="clipPath3130">
      <rect
         style="fill:#ce1313;fill-opacity:1;stroke:#aa0000;stroke-width:1.72205079"
         id="rect3132"
         width="436.15439"
         height="482.24683"
         x="-318.19806"
         y="146.05887"
         transform="scale(-1,1)" />
    </clipPath>
    <clipPath
       clipPathUnits="userSpaceOnUse"
       id="clipPath3140">
      <rect
         style="fill:#ce1313;fill-opacity:1;stroke:#aa0000;stroke-width:0.77844363"
         id="rect3142"
         width="317.91849"
         height="242.90938"
         x="2.0076513"
         y="-367.61905"
         transform="matrix(1,0,0.00368269,-0.99999322,0,0)" />
    </clipPath>
    <filter
       id="filter4219"
       inkscape:label="filter2" />
  </defs>
  <sodipodi:namedview
     id="base"
     pagecolor="#ffffff"
     bordercolor="#666666"
     borderopacity="1.0"
     inkscape:pageopacity="0.0"
     inkscape:pageshadow="2"
     inkscape:zoom="2.8284271"
     inkscape:cx="104.02528"
     inkscape:cy="85.133991"
     inkscape:document-units="px"
     inkscape:current-layer="layer1"
     showgrid="false"
     units="in"
     inkscape:window-width="1366"
     inkscape:window-height="705"
     inkscape:window-x="-32000"
     inkscape:window-y="-32000"
     inkscape:window-maximized="0" />
  <metadata
     id="metadata7">
    <rdf:RDF>
      <cc:Work
         rdf:about="">
        <dc:format>image/svg+xml</dc:format>
        <dc:type
           rdf:resource="http://purl.org/dc/dcmitype/StillImage" />
        <dc:title></dc:title>
      </cc:Work>
    </rdf:RDF>
  </metadata>
  <g
     inkscape:groupmode="layer"
     id="layer1"
     inkscape:label="Pattern"
     sodipodi:insensitive="true"
     style="display:inline">
    <image
       y="186.72229"
       x="1.3075013"
       id="image3074"
       xlink:href="file:///C:/Users/Bobby/Desktop/spa/businessCards/waves.jpg"
       height="377.96909"
       width="353.49628"
       clip-path="url(#clipPath3140)"
       transform="matrix(0.99174942,0,0,0.99481741,-1.2424039,-185.70849)" />
  </g>
  <g
     inkscape:groupmode="layer"
     id="layer3"
     inkscape:label="Shape"
     sodipodi:insensitive="true"
     style="display:inline">
    <g
       id="g3978"
       transform="matrix(1.0533273,0,0,1.0533273,-46.161193,-179.64481)"
       style="fill:#ffffff;fill-opacity:1;stroke-width:0;stroke-miterlimit:4;stroke-dasharray:none">
      <rect
         y="250.16103"
         x="43.841934"
         height="64.346718"
         width="207.61539"
         id="rect3182"
         style="fill:#ffffff;fill-opacity:1;stroke:#aa0000;stroke-width:0;stroke-miterlimit:4;stroke-dasharray:none" />
      <path
         transform="translate(-35.773341,-13.363961)"
         d="m 304.76303,281.46982 a 18.031223,18.031223 0 1 1 -36.06244,0 18.031223,18.031223 0 1 1 36.06244,0 z"
         sodipodi:ry="18.031223"
         sodipodi:rx="18.031223"
         sodipodi:cy="281.46982"
         sodipodi:cx="286.73181"
         id="path3186"
         style="fill:#ffffff;fill-opacity:1;stroke:#aa0000;stroke-width:0;stroke-miterlimit:4;stroke-dasharray:none"
         sodipodi:type="arc" />
      <path
         transform="translate(-35.505153,14.916221)"
         d="m 304.76303,281.46982 a 18.031223,18.031223 0 1 1 -36.06244,0 18.031223,18.031223 0 1 1 36.06244,0 z"
         sodipodi:ry="18.031223"
         sodipodi:rx="18.031223"
         sodipodi:cy="281.46982"
         sodipodi:cx="286.73181"
         id="path3186-1"
         style="fill:#ffffff;fill-opacity:1;stroke:#aa0000;stroke-width:0;stroke-miterlimit:4;stroke-dasharray:none"
         sodipodi:type="arc" />
      <rect
         y="268.13605"
         x="245.97665"
         height="28.75"
         width="23.25"
         id="rect3208"
         style="fill:#ffffff;fill-opacity:1;stroke:#aa0000;stroke-width:0;stroke-miterlimit:4;stroke-dasharray:none" />
    </g>
  </g>
  <g
     inkscape:groupmode="layer"
     id="layer4"
     inkscape:label="Logo"
     style="display:inline">
    <path
       style="opacity:0.98000004;fill:#e42017;fill-opacity:1;display:inline"
       d="m 24.553318,135.18281 c -2.250023,-0.25111 -5.439636,-1.40715 -7.356006,-2.6661 -1.944943,-1.27773 -4.306325,-3.44628 -5.50295,-5.0536 -0.658003,-0.88383 -1.407151,-2.09882 -1.337224,-2.16874 0.06038,-0.0604 0.858463,0.39183 1.305317,0.73962 0.235676,0.18343 0.669538,0.53652 0.964136,0.78464 1.170082,0.9855 2.268528,1.5864 2.899928,1.5864 0.168095,0 0.278598,-0.0581 0.411796,-0.21635 0.492973,-0.58587 0.2983,-1.24939 -0.940623,-3.20603 -1.113334,-1.75828 -1.930647,-3.82466 -2.337771,-5.91048 -0.271883,-1.39294 -0.330322,-2.09297 -0.3687,-4.41655 -0.03321,-2.0111 -0.0209,-2.47376 0.08363,-3.14237 0.355386,-2.27321 1.272859,-4.52037 2.940672,-7.20256 0.659799,-1.06109 1.197389,-1.75116 2.291198,-2.94105 2.574572,-2.80073 5.890647,-5.135818 9.481924,-6.676908 0.790816,-0.33935 2.910424,-1.07369 2.959044,-1.02515 0.07106,0.0709 -0.286486,0.44063 -0.679697,0.70281 -0.232187,0.15482 -0.956503,0.53089 -1.609591,0.83572 -1.372226,0.64048 -1.679691,0.81444 -2.663038,1.50666 -2.804103,1.973928 -4.834243,3.858998 -6.442309,5.981948 -0.765831,1.01104 -1.190843,1.73189 -1.985769,3.368 -1.114543,2.29394 -1.391967,3.35039 -1.450467,5.52349 -0.06314,2.3453 0.155422,4.07054 0.732933,5.78555 0.678558,2.01508 1.710805,3.79485 3.064746,5.28416 1.918075,2.10984 6.30721,3.84425 9.71675,3.83966 2.180571,-0.003 4.084166,-0.54592 5.709638,-1.6286 0.985516,-0.65643 1.667932,-1.38421 2.607608,-2.78097 0.448708,-0.66697 0.940812,-1.34826 1.093567,-1.51398 0.693171,-0.752 1.239541,-0.52231 2.069,0.86979 0.776424,1.3031 1.008983,2.09717 1.014422,3.46375 0.0058,1.45108 -0.231915,2.12004 -1.218726,3.43004 -2.832782,3.76056 -7.459394,6.54603 -11.379056,6.85081 -1.105008,0.0859 -3.289438,0.084 -4.074378,-0.004 l 0,0 z"
       id="path3818"
       inkscape:connector-curvature="0" />
    <path
       style="opacity:0.98000004;fill:#e42017;fill-opacity:1;display:inline"
       d="m 36.448476,141.1232 c -0.124991,-0.0488 -0.09902,-0.0829 0.214252,-0.28126 0.196067,-0.12416 1.240276,-0.67271 2.320466,-1.219 2.358131,-1.19259 3.116705,-1.64589 4.57072,-2.73132 3.13591,-2.34097 5.26293,-4.773 6.70397,-7.66529 1.15273,-2.31361 1.64287,-4.48925 1.55947,-6.92221 -0.15441,-4.50424 -2.06972,-8.3266 -5.23823,-10.4539 -0.69625,-0.46745 -2.34163,-1.26378 -3.27517,-1.58512 -1.929292,-0.66408 -3.400972,-0.88919 -5.46344,-0.83571 -1.390919,0.0361 -1.998055,0.11433 -3.127688,0.40314 -1.477238,0.37767 -2.176395,0.79988 -3.486709,2.10555 -1.220279,1.21596 -2.039504,2.38674 -2.706756,3.86831 l -0.303504,0.6739 -0.545182,-0.57953 c -1.264178,-1.34383 -2.017562,-2.99592 -2.204137,-4.83345 -0.09786,-0.96385 -0.04366,-1.29897 0.350543,-2.16699 1.536692,-3.38379 4.451067,-6.00305 8.665092,-7.78765 3.81922,-1.61741 8.771901,-1.55582 13.092901,0.16283 3.13305,1.24616 5.41113,2.93549 8.07752,5.98994 1.44171,1.65155 1.91833,2.49427 1.71312,3.02902 -0.0388,0.10116 -0.0651,0.0999 -0.25929,-0.012 -0.11885,-0.0685 -0.73413,-0.56959 -1.36729,-1.11348 -1.21682,-1.04525 -1.70954,-1.41173 -2.29839,-1.70953 -0.43502,-0.22 -1.14602,-0.36004 -1.51337,-0.29807 -0.54669,0.0922 -0.53415,0.0795 -0.47997,0.48567 0.0978,0.73312 0.48689,1.72643 1.35489,3.45898 0.48654,0.97114 1.00104,2.10315 1.14334,2.51558 1.09536,3.17476 1.39042,6.90055 0.81444,10.28413 -0.5741,3.37252 -1.8218,5.99786 -4.18455,8.80489 -2.57283,3.05661 -6.45024,5.77941 -10.378231,7.28781 -0.490995,0.18855 -1.294443,0.49963 -1.785439,0.6913 -1.204006,0.46999 -1.629322,0.56389 -1.963378,0.43347 z"
       id="path3820"
       inkscape:connector-curvature="0" />
    <path
       style="opacity:0.98000004;fill:#3a5eb7;fill-opacity:1;display:inline"
       d="m 33.32415,120.7082 c -0.441563,-0.0742 -1.206655,-0.39778 -1.59454,-0.67432 -0.881607,-0.62854 -1.228525,-1.8293 -0.860584,-2.97867 0.174755,-0.5459 0.442156,-0.98486 0.817142,-1.3414 0.382017,-0.36324 0.687661,-0.5435 1.209476,-0.71331 0.258496,-0.0841 0.367092,-0.0993 0.732029,-0.10236 0.474951,-0.004 0.759104,0.0618 1.177132,0.2724 0.635619,0.32025 1.257256,0.96755 1.554107,1.61827 0.189024,0.41435 0.256247,0.69746 0.275162,1.15884 0.0222,0.54166 -0.03039,0.80752 -0.247249,1.24981 -0.122755,0.25036 -0.208554,0.36294 -0.489849,0.64276 -0.486456,0.48389 -0.998288,0.74988 -1.644398,0.85457 -0.224919,0.0364 -0.7466,0.044 -0.928428,0.0134 l 0,0 z"
       id="path3854"
       inkscape:connector-curvature="0" />
    <path
       style="opacity:0.98000004;fill:#3a5eb7;fill-opacity:1;display:inline"
       d="m 38.394794,116.50216 c -0.732979,-0.1641 -1.426084,-0.78319 -1.736097,-1.55071 -0.163405,-0.40455 -0.198917,-0.82118 -0.102368,-1.20101 0.199049,-0.78304 0.846003,-1.44298 1.695872,-1.72989 0.327813,-0.11067 0.93442,-0.13735 1.248955,-0.0549 0.49502,0.1297 0.917751,0.40905 1.241181,0.82019 0.360685,0.45849 0.545196,0.95483 0.544444,1.46457 -8.7e-4,0.58571 -0.212373,1.06197 -0.674612,1.51904 -0.353471,0.34953 -0.592056,0.50087 -1.024638,0.64997 -0.377652,0.13018 -0.838254,0.16214 -1.192737,0.0828 l 0,0 z"
       id="path3856"
       inkscape:connector-curvature="0" />
    <path
       style="opacity:0.98000004;fill:#3a5eb7;fill-opacity:1;display:inline"
       d="m 43.983217,117.39877 c -0.31029,-0.0811 -0.42697,-0.14997 -0.619875,-0.36581 -0.616428,-0.68976 -0.609666,-1.48966 0.01782,-2.10755 0.637207,-0.62745 1.508507,-0.66965 2.048027,-0.0992 0.19993,0.2114 0.40255,0.59911 0.46954,0.89844 0.11236,0.50209 -0.1756,1.11144 -0.67742,1.43346 -0.35973,0.23084 -0.88501,0.33293 -1.23809,0.24065 z"
       id="path3858"
       inkscape:connector-curvature="0" />
    <path
       style="opacity:0.98000004;fill:#3a5eb7;fill-opacity:1;display:inline"
       d="m 47.507937,120.50055 c -0.27008,-0.0752 -0.34764,-0.12347 -0.50605,-0.31517 -0.2396,-0.28994 -0.33868,-0.53446 -0.35308,-0.87128 -0.0114,-0.266 -0.002,-0.31533 0.0933,-0.51778 0.13172,-0.27837 0.37166,-0.52297 0.64125,-0.65368 0.27381,-0.13277 0.66575,-0.14505 0.88651,-0.0278 0.19564,0.10394 0.43359,0.36966 0.53203,0.59417 0.25398,0.5792 0.19584,1.00092 -0.19732,1.4311 -0.30851,0.33756 -0.70754,0.4687 -1.09665,0.36042 z"
       id="path3860"
       inkscape:connector-curvature="0" />
    <path
       style="opacity:0.98000004;fill:#3a5eb7;fill-opacity:1;display:inline"
       d="m 28.374651,123.87447 c -0.36707,-0.066 -0.756849,-0.21291 -0.931523,-0.35098 -0.516444,-0.40823 -0.843644,-0.97858 -0.940192,-1.63888 -0.1648,-1.12707 0.600368,-2.36505 1.627072,-2.63248 0.588604,-0.15331 1.12376,-0.0116 1.817224,0.48126 0.544417,0.38692 0.81665,0.78235 0.932621,1.35469 0.221503,1.09317 -0.501607,2.37057 -1.533739,2.70939 -0.280039,0.0919 -0.702395,0.12541 -0.971463,0.077 l 0,0 z"
       id="path3862"
       inkscape:connector-curvature="0" />
    <path
       style="opacity:0.98000004;fill:#3a5eb7;fill-opacity:1;display:inline"
       d="m 23.012534,121.35604 c -0.430326,-0.11586 -0.673575,-0.3012 -0.841792,-0.6414 -0.481105,-0.97299 -0.208259,-1.77828 0.701509,-2.07047 0.769364,-0.24709 1.533696,0.0543 1.836063,0.72399 0.07597,0.16826 0.09503,0.27343 0.10822,0.59704 0.01385,0.34001 0.0057,0.42015 -0.06087,0.59639 -0.238058,0.63048 -1.023133,0.98829 -1.743129,0.79445 z"
       id="path3864"
       inkscape:connector-curvature="0" />
    <path
       style="opacity:0.98000004;fill:#3a5eb7;fill-opacity:1;display:inline"
       d="m 19.6834,117.93263 c -0.391565,-0.11187 -0.604185,-0.28436 -0.751755,-0.60988 -0.268546,-0.59238 -0.209582,-1.09937 0.16838,-1.44776 0.200697,-0.185 0.398259,-0.27336 0.709787,-0.31748 0.300025,-0.0425 0.526368,-7e-4 0.812569,0.15021 0.379766,0.20018 0.567517,0.54745 0.567778,1.05019 8.2e-5,0.16069 -0.01985,0.35352 -0.04429,0.4285 -0.114207,0.35036 -0.440159,0.63959 -0.83614,0.74194 -0.252704,0.0653 -0.408955,0.0664 -0.626328,0.004 z"
       id="path3866"
       inkscape:connector-curvature="0" />
    <text
       xml:space="preserve"
       style="font-size:12.60392952px;font-style:normal;font-variant:normal;font-weight:bold;font-stretch:normal;text-align:center;line-height:89.99999762%;letter-spacing:0px;word-spacing:0px;writing-mode:lr-tb;text-anchor:middle;fill:#3a5eb7;fill-opacity:1;stroke:none;font-family:Yellow Magician;-inkscape-font-specification:Yellow Magician Bold"
       x="93.524811"
       y="109.03667"
       id="text3903"
       sodipodi:linespacing="89.999998%"
       transform="scale(1.0304598,0.97044058)"><tspan
         sodipodi:role="line"
         id="tspan3790"
         x="93.524811"
         y="109.03667">BLUE BAY</tspan></text>
    <text
       xml:space="preserve"
       style="font-size:12.25382137px;font-style:normal;font-variant:normal;font-weight:bold;font-stretch:normal;text-align:start;line-height:125%;letter-spacing:0px;word-spacing:0px;writing-mode:lr-tb;text-anchor:start;fill:#e11010;fill-opacity:0.97254902;stroke:none;font-family:Yellow Magician;-inkscape-font-specification:Yellow Magician Bold"
       x="131.09544"
       y="105.71152"
       id="text3784"
       sodipodi:linespacing="125%"><tspan
         sodipodi:role="line"
         id="tspan3788"
         x="131.09544"
         y="105.71152">MASSAGE &amp; SPA</tspan></text>
    <text
       xml:space="preserve"
       style="font-size:8px;font-style:normal;font-variant:normal;font-weight:normal;font-stretch:normal;text-align:start;line-height:125%;letter-spacing:0px;word-spacing:0px;writing-mode:lr-tb;text-anchor:start;fill:#000000;fill-opacity:1;stroke:none;font-family:Tunga;-inkscape-font-specification:Tunga"
       x="64.621323"
       y="116.75"
       id="text4044"
       sodipodi:linespacing="125%"><tspan
         sodipodi:role="line"
         id="tspan4048"
         x="64.621323"
         y="116.75">1001 106th Ave NE #B, Bellevue, WA 98004</tspan><tspan
         sodipodi:role="line"
         x="64.621323"
         y="126.75"
         id="tspan4115">425.204.8777  |  info@bluebaybellevue.com</tspan><tspan
         sodipodi:role="line"
         x="64.621323"
         y="136.75"
         id="tspan4117">10AM-10PM, Open 7 Days</tspan></text>
  </g>
</svg>
