<?xml version="1.0" encoding="UTF-8" standalone="no"?>
<!-- Created with Inkscape (http://www.inkscape.org/) -->

<svg
   xmlns:dc="http://purl.org/dc/elements/1.1/"
   xmlns:cc="http://creativecommons.org/ns#"
   xmlns:rdf="http://www.w3.org/1999/02/22-rdf-syntax-ns#"
   xmlns:svg="http://www.w3.org/2000/svg"
   xmlns="http://www.w3.org/2000/svg"
   xmlns:sodipodi="http://sodipodi.sourceforge.net/DTD/sodipodi-0.dtd"
   xmlns:inkscape="http://www.inkscape.org/namespaces/inkscape"
   width="272.50705"
   height="273.07852"
   id="svg3017"
   version="1.1"
   inkscape:version="0.48.5 r10040"
   sodipodi:docname="logoWithoutText.svg"
   inkscape:export-filename="C:\Users\Bobby\Desktop\spa\businessCards\logoWithoutText.png"
   inkscape:export-xdpi="342.89999"
   inkscape:export-ydpi="342.89999">
  <defs
     id="defs3019" />
  <sodipodi:namedview
     id="base"
     pagecolor="#ffffff"
     bordercolor="#666666"
     borderopacity="1.0"
     inkscape:pageopacity="0.0"
     inkscape:pageshadow="2"
     inkscape:zoom="0.49497475"
     inkscape:cx="269.8088"
     inkscape:cy="-48.682445"
     inkscape:document-units="px"
     inkscape:current-layer="layer1"
     showgrid="false"
     fit-margin-top="0"
     fit-margin-left="0"
     fit-margin-right="0"
     fit-margin-bottom="0"
     inkscape:window-width="1366"
     inkscape:window-height="705"
     inkscape:window-x="-8"
     inkscape:window-y="-8"
     inkscape:window-maximized="1" />
  <metadata
     id="metadata3022">
    <rdf:RDF>
      <cc:Work
         rdf:about="">
        <dc:format>image/svg+xml</dc:format>
        <dc:type
           rdf:resource="http://purl.org/dc/dcmitype/StillImage" />
        <dc:title></dc:title>
      </cc:Work>
    </rdf:RDF>
  </metadata>
  <g
     inkscape:label="Layer 1"
     inkscape:groupmode="layer"
     id="layer1"
     transform="translate(-80.889332,-144.39432)">
    <path
       style="opacity:0.98000004;fill:#e11010;fill-opacity:0.99414296;display:inline"
       d="m 162.50987,383.02162 c -12.9323,-1.44329 -31.26502,-8.08777 -42.27959,-15.32375 -11.17881,-7.34388 -24.75116,-19.80794 -31.628924,-29.0462 -3.781964,-5.07995 -8.087775,-12.06323 -7.685868,-12.46514 0.347033,-0.34703 4.934129,2.25213 7.502475,4.25108 1.354589,1.05429 3.848264,3.08371 5.5415,4.50983 6.725207,5.66428 13.038667,9.11805 16.667717,9.11805 0.96614,0 1.60127,-0.33369 2.36685,-1.24352 2.83343,-3.36734 1.71452,-7.18105 -5.40635,-18.42704 -6.39903,-10.10598 -11.096643,-21.98275 -13.436642,-33.97128 -1.562684,-8.00611 -1.898569,-12.02959 -2.119147,-25.38469 -0.190914,-11.55903 -0.120147,-14.21824 0.480646,-18.06118 2.042627,-13.06558 7.315923,-25.98141 16.901893,-41.39764 3.79228,-6.09877 6.88215,-10.06502 13.16896,-16.90408 14.79767,-16.09753 33.85725,-29.51875 54.49857,-38.37637 4.54532,-1.95049 16.72804,-6.17115 17.00749,-5.89219 0.4084,0.40767 -1.64662,2.53257 -3.90665,4.03951 -1.33452,0.88982 -5.49762,3.05134 -9.25133,4.80338 -7.88704,3.68127 -9.65424,4.68109 -15.30615,8.65973 -16.11694,11.34544 -27.78543,22.18012 -37.028,34.38205 -4.40171,5.81107 -6.84452,9.95425 -11.41346,19.35799 -6.40598,13.18471 -8.00051,19.25681 -8.33675,31.74696 -0.36289,13.47995 0.89331,23.39599 4.21263,33.25321 3.90009,11.58192 9.83307,21.81141 17.61502,30.37141 11.02438,12.12659 36.2515,22.09531 55.84827,22.06891 12.53311,-0.0169 23.47427,-3.13771 32.81688,-9.36059 5.66438,-3.77291 9.58665,-7.95593 14.98756,-15.98397 2.57901,-3.83349 5.40744,-7.74929 6.28542,-8.70178 3.98409,-4.32223 7.12442,-3.00205 11.89184,4.99924 4.4626,7.48969 5.79926,12.05375 5.83052,19.90835 0.0332,8.34027 -1.33296,12.18519 -7.00478,19.7146 -16.28178,21.61425 -42.87383,37.6241 -65.40259,39.37591 -6.35118,0.49387 -18.90647,0.48272 -23.41801,-0.0208 l 0,2e-5 z"
       id="path3818"
       inkscape:connector-curvature="0" />
    <path
       style="opacity:0.98000004;fill:#e11010;fill-opacity:0.99414296;display:inline"
       d="m 232.91091,417.16482 c -0.7184,-0.28048 -0.56912,-0.47645 1.23144,-1.61662 1.12692,-0.7136 7.12865,-3.86645 13.33718,-7.00633 13.55366,-6.85457 17.91366,-9.45998 26.27082,-15.69865 18.024,-13.45502 30.24934,-27.4334 38.53193,-44.05719 6.62547,-13.29782 9.44259,-25.80257 8.96321,-39.78632 -0.88749,-25.88872 -11.89594,-47.85823 -30.10737,-60.08512 -4.00181,-2.68676 -13.45882,-7.26379 -18.82446,-9.11069 -11.08886,-3.8169 -19.54753,-5.11078 -31.40183,-4.80335 -7.99449,0.20733 -11.48408,0.65711 -17.97679,2.31706 -8.49062,2.17074 -12.50911,4.59743 -20.04031,12.10196 -7.01371,6.98888 -11.72231,13.71808 -15.55743,22.23361 l -1.74443,3.87334 -3.1335,-3.33093 c -7.26603,-7.72383 -11.5962,-17.21946 -12.66856,-27.78089 -0.5625,-5.53987 -0.25091,-7.46602 2.01479,-12.45508 8.83233,-19.44873 25.58308,-34.50328 49.80373,-44.76053 21.95146,-9.29627 50.41764,-8.94223 75.25311,0.93593 18.00763,7.16243 31.10122,16.87207 46.42661,34.42796 8.28642,9.49245 11.02584,14.3361 9.84641,17.40966 -0.22312,0.58142 -0.37431,0.57442 -1.49031,-0.0691 -0.6831,-0.39386 -4.21952,-3.2738 -7.85871,-6.39986 -6.99381,-6.00769 -9.82577,-8.11409 -13.21027,-9.82574 -2.50032,-1.26449 -6.58689,-2.06938 -8.69832,-1.71322 -3.14217,0.53004 -3.07009,0.4571 -2.75866,2.79146 0.56214,4.21372 2.79844,9.92292 7.78739,19.88096 2.79643,5.58172 5.7536,12.08811 6.57149,14.45864 6.29573,18.24732 7.99163,39.6618 4.68112,59.10933 -3.29971,19.384 -10.47103,34.47349 -24.05124,50.60724 -14.78769,17.56827 -37.07359,33.2179 -59.65023,41.88764 -2.82206,1.08371 -7.43998,2.8717 -10.26204,3.97332 -6.92018,2.70136 -9.36474,3.24106 -11.28477,2.49146 z"
       id="path3820"
       inkscape:connector-curvature="0" />
    <path
       style="opacity:0.98000004;fill:#37abc8;fill-opacity:0.97254902;display:inline"
       d="m 212.92135,299.82697 c -2.53794,-0.42663 -6.9354,-2.28629 -9.16482,-3.87575 -5.06715,-3.61263 -7.06111,-10.51414 -4.94632,-17.12028 1.00443,-3.13763 2.54135,-5.66061 4.69663,-7.70991 2.19569,-2.08774 3.95242,-3.12379 6.95162,-4.09982 1.48574,-0.48351 2.10991,-0.57079 4.20743,-0.58834 2.72984,-0.0229 4.36305,0.3551 6.76572,1.56566 3.6533,1.84069 7.22624,5.56114 8.93243,9.30122 1.08644,2.38155 1.47281,4.00876 1.58153,6.66059 0.12762,3.11328 -0.17466,4.6413 -1.4211,7.18343 -0.70555,1.43898 -1.19869,2.08606 -2.81547,3.69433 -2.79597,2.78125 -5.73779,4.31008 -9.45139,4.91177 -1.29275,0.20945 -4.29118,0.25277 -5.33626,0.0771 l 0,0 z"
       id="path3854"
       inkscape:connector-curvature="0" />
    <path
       style="opacity:0.98000004;fill:#37abc8;fill-opacity:0.97254902;display:inline"
       d="m 242.06553,275.65218 c -4.21289,-0.94318 -8.1966,-4.50148 -9.97844,-8.91287 -0.93919,-2.32521 -1.1433,-4.71987 -0.58837,-6.90295 1.14406,-4.50067 4.86251,-8.29374 9.74724,-9.9428 1.88415,-0.63609 5.3707,-0.78946 7.17853,-0.31578 2.84519,0.74547 5.27489,2.35105 7.13385,4.71413 2.07308,2.63527 3.13358,5.48806 3.12926,8.41782 -0.005,3.36648 -1.22064,6.10385 -3.87742,8.73092 -2.03162,2.00892 -3.40292,2.87879 -5.88924,3.73578 -2.1706,0.74818 -4.81797,0.9319 -6.85541,0.47575 l 0,0 z"
       id="path3856"
       inkscape:connector-curvature="0" />
    <path
       style="opacity:0.98000004;fill:#37abc8;fill-opacity:0.97254902;display:inline"
       d="m 274.18571,280.80555 c -1.78343,-0.46616 -2.45408,-0.86193 -3.56281,-2.10254 -3.543,-3.96443 -3.50413,-8.56201 0.10241,-12.11337 3.66242,-3.60638 8.67032,-3.84893 11.77129,-0.57011 1.14912,1.21502 2.31374,3.44345 2.69876,5.16389 0.64582,2.88583 -1.00931,6.38816 -3.89359,8.239 -2.06757,1.32675 -5.08668,1.91357 -7.11606,1.38313 z"
       id="path3858"
       inkscape:connector-curvature="0" />
    <path
       style="opacity:0.98000004;fill:#37abc8;fill-opacity:0.97254902;display:inline"
       d="m 294.44447,298.63343 c -1.5523,-0.43201 -1.99809,-0.70964 -2.90859,-1.81148 -1.37708,-1.66646 -1.9466,-3.07183 -2.02935,-5.00778 -0.0653,-1.52888 -0.0143,-1.81239 0.53632,-2.97599 0.75705,-1.59996 2.13618,-3.00582 3.68567,-3.75713 1.57376,-0.76308 3.82649,-0.83366 5.0953,-0.15964 1.12451,0.59737 2.49211,2.12467 3.05794,3.41503 1.4598,3.32907 1.1256,5.75295 -1.13411,8.22544 -1.77324,1.94021 -4.06671,2.69396 -6.30318,2.07155 z"
       id="path3860"
       inkscape:connector-curvature="0" />
    <path
       style="opacity:0.98000004;fill:#37abc8;fill-opacity:0.97254902;display:inline"
       d="m 184.47347,318.02547 c -2.10978,-0.3796 -4.35009,-1.2237 -5.35405,-2.01728 -2.96833,-2.34633 -4.84895,-5.6245 -5.40387,-9.41966 -0.94721,-6.47799 3.45069,-13.59346 9.3518,-15.1305 3.38308,-0.88118 6.45896,-0.0666 10.44473,2.76609 3.12911,2.22385 4.6938,4.49667 5.36036,7.78627 1.27312,6.28312 -2.88305,13.62511 -8.81536,15.57255 -1.60956,0.52838 -4.03711,0.72078 -5.58361,0.44253 l 0,0 z"
       id="path3862"
       inkscape:connector-curvature="0" />
    <path
       style="opacity:0.98000004;fill:#37abc8;fill-opacity:0.97254902;display:inline"
       d="m 153.65401,303.55049 c -2.47335,-0.66589 -3.87146,-1.73117 -4.8383,-3.68652 -2.76522,-5.59238 -1.197,-10.22091 4.03201,-11.90028 4.42202,-1.42021 8.81511,0.31205 10.553,4.16119 0.43666,0.96712 0.54623,1.57161 0.62201,3.43156 0.0796,1.95429 0.0326,2.41489 -0.34986,3.42786 -1.36827,3.62378 -5.88059,5.68031 -10.01886,4.56619 z"
       id="path3864"
       inkscape:connector-curvature="0" />
    <path
       style="opacity:0.98000004;fill:#37abc8;fill-opacity:0.97254902;display:inline"
       d="m 134.51939,283.87401 c -2.25057,-0.64299 -3.47263,-1.63442 -4.32081,-3.50538 -1.54351,-3.40477 -1.2046,-6.31874 0.96779,-8.32118 1.15353,-1.06329 2.28904,-1.57119 4.07959,-1.82476 1.72443,-0.24421 3.02536,-0.004 4.67034,0.86337 2.18275,1.15055 3.26188,3.14655 3.26338,6.03607 4.7e-4,0.9236 -0.11408,2.0319 -0.25457,2.46288 -0.65642,2.01375 -2.52987,3.67614 -4.80582,4.2644 -1.45245,0.37541 -2.35052,0.38155 -3.5999,0.0246 z"
       id="path3866"
       inkscape:connector-curvature="0" />
  </g>
</svg>
